<svg t="1702866693254" class="icon" viewBox="0 0 1024 1024" version="1.1" xmlns="http://www.w3.org/2000/svg" p-id="3913" width="200" height="200"><path d="M948.27 598.58c-5.97 20.15-13.81 39.93-23.51 59.34-2.61 5.6-5.6 10.82-8.96 16.42-5.97 10.82-13.06 21.27-20.53 31.35-8.59 11.57-18.29 22.76-29.11 33.22l-15.3 15.67-39.93 39.93-70.91 70.91c-9.7 9.7-19.78 18.29-29.86 26.5-17.17 13.43-35.45 24.63-54.49 33.96-89.94 45.16-197.05 44.78-286.99-0.37-18.66-8.96-36.95-20.53-53.74-33.59-10.45-8.21-20.53-16.79-30.23-26.5l-70.91-70.91-39.56-39.93-15.3-15.3c-24.63-24.63-44.78-52.25-59.34-81.73-1.87-2.61-2.99-5.6-4.48-8.59-7.46-16.42-13.81-33.22-18.29-50.01-5.23-18.29-8.59-36.58-10.45-55.24-9.33-92.55 21.65-188.84 92.55-259.38L285.08 158.2c125.4-125.77 329.54-125.77 454.94 0l126.14 125.77c85.09 85.08 112.33 206.38 82.11 314.61z" fill="#3C98FB" p-id="3914"></path><path d="M925.05 657.91c-2.61 5.6-5.6 10.82-8.96 16.42-5.97 10.82-13.06 21.27-20.53 31.35-8.59 11.57-18.29 22.76-29.11 33.22l-15.3 15.67-39.93 39.93-70.91 70.91c-9.7 9.7-19.78 18.29-29.86 26.5-17.17 13.43-35.45 24.63-54.49 33.96-89.94 45.16-197.05 44.78-286.99-0.37-18.66-8.96-36.95-20.53-53.74-33.59-10.45-8.21-20.53-16.79-30.23-26.5l-70.91-70.91-39.56-39.93-15.3-15.3c-24.63-24.63-44.78-52.25-59.34-81.73 46.28-157.87 180.26-277.66 345.59-303.42 21.64-3.73 44.41-5.6 67.18-5.6 22.76 0 45.53 1.87 67.55 5.6 164.96 25.76 299.31 145.93 344.84 303.79z" fill="#FFFFFF" opacity=".15" p-id="3915"></path><path d="M811.78 778.46c0 5.22 0 10.82-0.74 16.05l-70.91 70.91c-9.7 9.7-19.78 18.29-29.86 26.5-17.17 13.43-35.45 24.63-54.49 33.96-89.94 45.16-197.05 44.78-286.99-0.37-18.66-8.96-36.95-20.53-53.74-33.59-10.45-8.21-20.53-16.79-30.23-26.5l-70.91-70.91c-0.75-5.23-0.75-10.45-0.75-16.05 0-101.89 51.13-192.2 129.13-245.94 38.44-26.87 83.6-44.78 132.86-51.13 12.32-1.49 24.63-2.24 37.32-2.24 12.69 0 25.38 0.75 37.69 2.24a299.308 299.308 0 0 1 133.23 51.5c77.64 54.12 128.39 143.68 128.39 245.57z" fill="#FFFFFF" opacity=".2" p-id="3916"></path><path d="M718.48 778.09c0 57.85-23.88 110.47-62.7 147.79-89.94 45.16-197.05 44.78-286.99-0.37-38.44-37.32-62.32-89.57-62.32-147.42 0-13.81 1.49-26.87 3.73-39.93 17.91-89.94 94.42-158.99 188.47-164.96 4.48-0.75 8.96-0.75 13.81-0.75s9.7 0 14.18 0.75c93.67 6.34 170.18 75.01 188.09 164.96 2.24 13.06 3.73 26.12 3.73 39.93z" fill="#FFFFFF" opacity=".25" p-id="3917"></path><path d="M740.96 355.61h-33.48v-27.29c0-15.46-12.53-27.99-27.99-27.99h-82.22c-15.46 0-27.99 12.53-27.99 27.99v27.29H459.04v-27.29c0-15.46-12.53-27.99-27.99-27.99h-82.22c-15.46 0-27.99 12.53-27.99 27.99v27.29h-36.85c-17.59 0-31.85 14.26-31.85 31.85v303.79c0 17.59 14.26 31.85 31.85 31.85h456.98c17.59 0 31.85-14.26 31.85-31.85V387.46c-0.01-17.59-14.27-31.85-31.86-31.85zM453.65 561.05h-37.13v37.14c0 11.98-9.71 21.69-21.69 21.69s-21.69-9.71-21.69-21.69v-37.14H336c-11.98 0-21.69-9.71-21.69-21.69s9.71-21.69 21.69-21.69h37.13v-37.13c0-11.98 9.71-21.69 21.69-21.69s21.69 9.71 21.69 21.69v37.13h37.13c11.98 0 21.69 9.71 21.69 21.69 0.01 11.97-9.7 21.69-21.68 21.69z m235.3 0H571.31c-11.98 0-21.69-9.71-21.69-21.69s9.71-21.69 21.69-21.69h117.65c11.98 0 21.69 9.71 21.69 21.69 0 11.97-9.72 21.69-21.7 21.69z" fill="#FFFFFF" p-id="3918"></path></svg>