<svg t="1702951211895" class="icon" viewBox="0 0 1024 1024" version="1.1" xmlns="http://www.w3.org/2000/svg" p-id="27065" width="200" height="200"><path d="M239.786667 186.026667h117.248c16.213333 0 29.354667 13.141333 29.354666 29.354666s-13.141333 29.354667-29.354666 29.354667h-117.248c-16.213333 0-29.354667-13.141333-29.354667-29.354667s12.970667-29.354667 29.354667-29.354666c-0.170667 0 0 0 0 0zM649.728 186.026667h117.248c16.213333 0 29.354667 13.141333 29.354667 29.354666s-13.141333 29.354667-29.354667 29.354667h-117.248c-16.213333 0-29.354667-13.141333-29.354667-29.354667s13.141333-29.354667 29.354667-29.354666zM796.16 273.92H210.432c-48.298667 0-87.893333 39.594667-87.893333 87.893333v410.112c0 48.298667 39.594667 87.893333 87.893333 87.893334h585.728c48.298667 0 87.893333-39.594667 87.893333-87.893334V361.813333c0-48.298667-39.594667-87.893333-87.893333-87.893333zM473.941333 595.968H239.786667v-58.538667h234.325333v58.538667z m292.864 0.170667h-87.893333v87.893333h-58.538667v-87.893333H532.48V537.6h87.893333v-87.893333h58.538667V537.6h87.893333v58.538667z" p-id="27066" fill="#ea9518"></path></svg>