<?xml version="1.0" encoding="utf-8"?>
<svg version="1.1" xmlns:xlink="http://www.w3.org/1999/xlink" width="40px" height="40px" xmlns="http://www.w3.org/2000/svg">
  <g transform="matrix(1 0 0 1 -96 -320 )">
    <path d="M 116 320  C 127.2 320  136 328.8  136 340  C 136 351.2  127.2 360  116 360  C 104.8 360  96 351.2  96 340  C 96 328.8  104.8 320  116 320  Z " fill-rule="nonzero" fill="#aaaaaa" stroke="none" />
    <path d="M 116 320.5  C 126.92 320.5  135.5 329.08  135.5 340  C 135.5 350.92  126.92 359.5  116 359.5  C 105.08 359.5  96.5 350.92  96.5 340  C 96.5 329.08  105.08 320.5  116 320.5  Z " stroke-width="1" stroke="#aaaaaa" fill="none" />
  </g>
</svg>